<svg width="20" height="20" viewBox="0 0 20 20" fill="none" xmlns="http://www.w3.org/2000/svg">
<path d="M10.7325 0.207082C10.8059 0.137121 10.8927 0.0827733 10.9877 0.0473232C11.0827 0.011873 11.184 -0.0039428 11.2853 0.00083189C15.7223 0.208582 19.2825 3.76883 19.4902 8.20583C19.495 8.30719 19.4792 8.40845 19.4437 8.50351C19.4082 8.59856 19.3537 8.68542 19.2837 8.75883C19.2137 8.83224 19.1294 8.89067 19.0362 8.93059C18.9429 8.97051 18.8425 8.99109 18.741 8.99108H11.25C11.0511 8.99108 10.8603 8.91206 10.7197 8.77141C10.579 8.63076 10.5 8.43999 10.5 8.24108V0.750082C10.5 0.648548 10.5206 0.548067 10.5605 0.454729C10.6005 0.361391 10.659 0.27714 10.7325 0.207082ZM8.7675 2.45708C8.84099 2.52714 8.89949 2.61139 8.93946 2.70473C8.97942 2.79807 9.00002 2.89855 9 3.00008V8.61608C9 9.11336 9.19754 9.59028 9.54917 9.94191C9.90081 10.2935 10.3777 10.4911 10.875 10.4911H16.491C16.5925 10.491 16.693 10.5115 16.7864 10.5513C16.8798 10.5912 16.9641 10.6496 17.0342 10.7231C17.1043 10.7965 17.1588 10.8834 17.1944 10.9785C17.2299 11.0736 17.2458 11.1749 17.241 11.2763C17.025 15.8498 13.2502 19.4911 8.625 19.4911C3.86175 19.4911 0 15.6293 0 10.8661C0 6.24008 3.64125 2.46533 8.21475 2.25083C8.31604 2.24606 8.41725 2.26187 8.51226 2.29732C8.60726 2.33277 8.69409 2.38712 8.7675 2.45708Z" fill="#6C71FF"/>
</svg>
