<svg width="20" height="20" viewBox="0 0 20 20" fill="none" xmlns="http://www.w3.org/2000/svg">
<path d="M10.9825 0.465871C11.0559 0.39591 11.1427 0.341562 11.2377 0.306112C11.3327 0.270662 11.434 0.254846 11.5353 0.259621C15.9723 0.467371 19.5325 4.02762 19.7402 8.46462C19.745 8.56597 19.7292 8.66724 19.6937 8.76229C19.6582 8.85735 19.6037 8.94421 19.5337 9.01762C19.4637 9.09103 19.3794 9.14946 19.2862 9.18938C19.1929 9.2293 19.0925 9.24988 18.991 9.24987H11.5C11.3011 9.24987 11.1103 9.17085 10.9697 9.0302C10.829 8.88955 10.75 8.69878 10.75 8.49987V1.00887C10.75 0.907337 10.7706 0.806856 10.8105 0.713518C10.8505 0.62018 10.909 0.535929 10.9825 0.465871ZM9.0175 2.71587C9.09099 2.78593 9.14949 2.87018 9.18946 2.96352C9.22942 3.05686 9.25002 3.15734 9.25 3.25887V8.87487C9.25 9.37215 9.44754 9.84906 9.79918 10.2007C10.1508 10.5523 10.6277 10.7499 11.125 10.7499H16.741C16.8425 10.7498 16.943 10.7703 17.0364 10.8101C17.1298 10.85 17.2141 10.9084 17.2842 10.9819C17.3543 11.0553 17.4088 11.1422 17.4444 11.2373C17.4799 11.3324 17.4958 11.4337 17.491 11.5351C17.275 16.1086 13.5002 19.7499 8.875 19.7499C4.11175 19.7499 0.25 15.8881 0.25 11.1249C0.25 6.49887 3.89125 2.72412 8.46475 2.50962C8.56604 2.50485 8.66725 2.52066 8.76226 2.55611C8.85726 2.59156 8.94409 2.64591 9.0175 2.71587Z" fill="#334E5C"/>
</svg>
