<svg width="58" height="55" viewBox="0 0 58 55" fill="none" xmlns="http://www.w3.org/2000/svg">
<mask id="path-1-outside-1_262_177" maskUnits="userSpaceOnUse" x="-0.400391" y="-0.399902" width="59" height="56" fill="black">
<rect fill="white" x="-0.400391" y="-0.399902" width="59" height="56"/>
<path d="M0.599609 6.1001C0.599609 3.06253 3.06204 0.600098 6.09961 0.600098H52.2996C55.3372 0.600098 57.7996 3.06253 57.7996 6.1001V49.0001C57.7996 52.0377 55.3372 54.5001 52.2996 54.5001H6.09961C3.06205 54.5001 0.599609 52.0377 0.599609 49.0001V6.1001Z"/>
</mask>
<path d="M0.599609 6.1001C0.599609 3.06253 3.06204 0.600098 6.09961 0.600098H52.2996C55.3372 0.600098 57.7996 3.06253 57.7996 6.1001V49.0001C57.7996 52.0377 55.3372 54.5001 52.2996 54.5001H6.09961C3.06205 54.5001 0.599609 52.0377 0.599609 49.0001V6.1001Z" fill="url(#paint0_linear_262_177)" fill-opacity="0.74"/>
<path d="M6.09961 0.600098V0.710098H52.2996V0.600098V0.490098H6.09961V0.600098ZM57.7996 6.1001H57.6896V49.0001H57.7996H57.9096V6.1001H57.7996ZM52.2996 54.5001V54.3901H6.09961V54.5001V54.6101H52.2996V54.5001ZM0.599609 49.0001H0.709609V6.1001H0.599609H0.489609V49.0001H0.599609ZM6.09961 54.5001V54.3901C3.1228 54.3901 0.709609 51.9769 0.709609 49.0001H0.599609H0.489609C0.489609 52.0984 3.0013 54.6101 6.09961 54.6101V54.5001ZM57.7996 49.0001H57.6896C57.6896 51.9769 55.2764 54.3901 52.2996 54.3901V54.5001V54.6101C55.3979 54.6101 57.9096 52.0984 57.9096 49.0001H57.7996ZM52.2996 0.600098V0.710098C55.2764 0.710098 57.6896 3.12328 57.6896 6.1001H57.7996H57.9096C57.9096 3.00178 55.3979 0.490098 52.2996 0.490098V0.600098ZM6.09961 0.600098V0.490098C3.00129 0.490098 0.489609 3.00178 0.489609 6.1001H0.599609H0.709609C0.709609 3.12328 3.12279 0.710098 6.09961 0.710098V0.600098Z" fill="#6C71FF" mask="url(#path-1-outside-1_262_177)"/>
<path d="M25.25 26.6875C24.8356 26.6875 24.4382 26.8521 24.1451 27.1451C23.8521 27.4382 23.6875 27.8356 23.6875 28.25C23.6875 28.6644 23.8521 29.0618 24.1451 29.3549C24.4382 29.6479 24.8356 29.8125 25.25 29.8125C25.4552 29.8125 25.6584 29.7721 25.8479 29.6936C26.0375 29.615 26.2098 29.4999 26.3549 29.3549C26.4999 29.2098 26.615 29.0375 26.6936 28.8479C26.7721 28.6584 26.8125 28.4552 26.8125 28.25C26.8125 28.0448 26.7721 27.8416 26.6936 27.6521C26.615 27.4625 26.4999 27.2902 26.3549 27.1451C26.2098 27.0001 26.0375 26.885 25.8479 26.8064C25.6584 26.7279 25.4552 26.6875 25.25 26.6875ZM32.75 26.6875C32.3356 26.6875 31.9382 26.8521 31.6451 27.1451C31.3521 27.4382 31.1875 27.8356 31.1875 28.25C31.1875 28.6644 31.3521 29.0618 31.6451 29.3549C31.9382 29.6479 32.3356 29.8125 32.75 29.8125C33.1644 29.8125 33.5618 29.6479 33.8549 29.3549C34.1479 29.0618 34.3125 28.6644 34.3125 28.25C34.3125 27.8356 34.1479 27.4382 33.8549 27.1451C33.5618 26.8521 33.1644 26.6875 32.75 26.6875ZM29 14.5C27.3585 14.5 25.733 14.8233 24.2165 15.4515C22.6999 16.0797 21.3219 17.0004 20.1612 18.1612C17.817 20.5054 16.5 23.6848 16.5 27C16.5 30.3152 17.817 33.4946 20.1612 35.8388C21.3219 36.9996 22.6999 37.9203 24.2165 38.5485C25.733 39.1767 27.3585 39.5 29 39.5C32.3152 39.5 35.4946 38.183 37.8388 35.8388C40.183 33.4946 41.5 30.3152 41.5 27C41.5 25.3585 41.1767 23.733 40.5485 22.2165C39.9203 20.6999 38.9996 19.3219 37.8388 18.1612C36.6781 17.0004 35.3001 16.0797 33.7835 15.4515C32.267 14.8233 30.6415 14.5 29 14.5ZM29 37C23.4875 37 19 32.5125 19 27C19 26.6375 19 26.275 19.0625 25.925C22.0125 24.6125 24.35 22.2 25.575 19.2125C27.0036 21.241 29.0052 22.7969 31.3234 23.681C33.6416 24.5651 36.1709 24.7371 38.5875 24.175C38.85 25.0625 39 26.0125 39 27C39 32.5125 34.5125 37 29 37Z" fill="#E6E6E6"/>
<defs>
<linearGradient id="paint0_linear_262_177" x1="57.7996" y1="0.600098" x2="0.599604" y2="54.5001" gradientUnits="userSpaceOnUse">
<stop stop-color="#333AFF"/>
<stop offset="0.25" stop-color="#5258FF"/>
<stop offset="0.75" stop-color="#5258FF"/>
<stop offset="1" stop-color="#333AFF"/>
</linearGradient>
</defs>
</svg>
