<svg width="59" height="55" viewBox="0 0 59 55" fill="none" xmlns="http://www.w3.org/2000/svg">
<mask id="path-1-outside-1_262_178" maskUnits="userSpaceOnUse" x="0" y="-0.399902" width="59" height="56" fill="black">
<rect fill="white" y="-0.399902" width="59" height="56"/>
<path d="M1 6.1001C1 3.06253 3.46243 0.600098 6.5 0.600098H52.7C55.7376 0.600098 58.2 3.06253 58.2 6.1001V49.0001C58.2 52.0377 55.7376 54.5001 52.7 54.5001H6.5C3.46244 54.5001 1 52.0377 1 49.0001V6.1001Z"/>
</mask>
<path d="M1 6.1001C1 3.06253 3.46243 0.600098 6.5 0.600098H52.7C55.7376 0.600098 58.2 3.06253 58.2 6.1001V49.0001C58.2 52.0377 55.7376 54.5001 52.7 54.5001H6.5C3.46244 54.5001 1 52.0377 1 49.0001V6.1001Z" fill="url(#paint0_linear_262_178)" fill-opacity="0.74"/>
<path d="M6.5 0.600098V0.710098H52.7V0.600098V0.490098H6.5V0.600098ZM58.2 6.1001H58.09V49.0001H58.2H58.31V6.1001H58.2ZM52.7 54.5001V54.3901H6.5V54.5001V54.6101H52.7V54.5001ZM1 49.0001H1.11V6.1001H1H0.89V49.0001H1ZM6.5 54.5001V54.3901C3.52319 54.3901 1.11 51.9769 1.11 49.0001H1H0.89C0.89 52.0984 3.40169 54.6101 6.5 54.6101V54.5001ZM58.2 49.0001H58.09C58.09 51.9769 55.6768 54.3901 52.7 54.3901V54.5001V54.6101C55.7983 54.6101 58.31 52.0984 58.31 49.0001H58.2ZM52.7 0.600098V0.710098C55.6768 0.710098 58.09 3.12328 58.09 6.1001H58.2H58.31C58.31 3.00178 55.7983 0.490098 52.7 0.490098V0.600098ZM6.5 0.600098V0.490098C3.40168 0.490098 0.89 3.00178 0.89 6.1001H1H1.11C1.11 3.12328 3.52319 0.710098 6.5 0.710098V0.600098Z" fill="#6C71FF" mask="url(#path-1-outside-1_262_178)"/>
<path d="M32.1875 28.25C32.1875 27.8356 32.3521 27.4382 32.6451 27.1451C32.9382 26.8521 33.3356 26.6875 33.75 26.6875C34.1644 26.6875 34.5618 26.8521 34.8549 27.1451C35.1479 27.4382 35.3125 27.8356 35.3125 28.25C35.3125 28.6644 35.1479 29.0618 34.8549 29.3549C34.5618 29.6479 34.1644 29.8125 33.75 29.8125C33.3356 29.8125 32.9382 29.6479 32.6451 29.3549C32.3521 29.0618 32.1875 28.6644 32.1875 28.25ZM42.5 27V39.5H17.5V27C17.5 20.125 23.125 14.5 30 14.5C36.875 14.5 42.5 20.125 42.5 27ZM20 27C20 32.5125 24.4875 37 30 37C35.5125 37 40 32.5125 40 27C40 26.0125 39.85 25.0625 39.5875 24.175C37.1709 24.7371 34.6416 24.5651 32.3234 23.681C30.0052 22.7969 28.0036 21.241 26.575 19.2125C25.35 22.2 23.0125 24.6125 20.0625 25.925C20 26.275 20 26.6375 20 27ZM26.25 29.8125C26.6644 29.8125 27.0618 29.6479 27.3549 29.3549C27.6479 29.0618 27.8125 28.6644 27.8125 28.25C27.8125 27.8356 27.6479 27.4382 27.3549 27.1451C27.0618 26.8521 26.6644 26.6875 26.25 26.6875C25.8356 26.6875 25.4382 26.8521 25.1451 27.1451C24.8521 27.4382 24.6875 27.8356 24.6875 28.25C24.6875 28.6644 24.8521 29.0618 25.1451 29.3549C25.4382 29.6479 25.8356 29.8125 26.25 29.8125Z" fill="#E6E6E6"/>
<defs>
<linearGradient id="paint0_linear_262_178" x1="58.2" y1="0.600098" x2="0.999995" y2="54.5001" gradientUnits="userSpaceOnUse">
<stop stop-color="#333AFF"/>
<stop offset="0.25" stop-color="#5258FF"/>
<stop offset="0.75" stop-color="#5258FF"/>
<stop offset="1" stop-color="#333AFF"/>
</linearGradient>
</defs>
</svg>
