<svg width="58" height="55" viewBox="0 0 58 55" fill="none" xmlns="http://www.w3.org/2000/svg">
<mask id="path-1-outside-1_167_232" maskUnits="userSpaceOnUse" x="-0.799805" y="0" width="59" height="56" fill="black">
<rect fill="white" x="-0.799805" width="59" height="56"/>
<path d="M0.200195 6.5C0.200195 3.46243 2.66263 1 5.7002 1H51.9002C54.9378 1 57.4002 3.46243 57.4002 6.5V49.4C57.4002 52.4376 54.9378 54.9 51.9002 54.9H5.7002C2.66263 54.9 0.200195 52.4376 0.200195 49.4V6.5Z"/>
</mask>
<path d="M0.200195 6.5C0.200195 3.46243 2.66263 1 5.7002 1H51.9002C54.9378 1 57.4002 3.46243 57.4002 6.5V49.4C57.4002 52.4376 54.9378 54.9 51.9002 54.9H5.7002C2.66263 54.9 0.200195 52.4376 0.200195 49.4V6.5Z" fill="url(#paint0_linear_167_232)" fill-opacity="0.74"/>
<path d="M5.7002 1V1.11H51.9002V1V0.89H5.7002V1ZM57.4002 6.5H57.2902V49.4H57.4002H57.5102V6.5H57.4002ZM51.9002 54.9V54.79H5.7002V54.9V55.01H51.9002V54.9ZM0.200195 49.4H0.310195V6.5H0.200195H0.0901953V49.4H0.200195ZM5.7002 54.9V54.79C2.72338 54.79 0.310195 52.3768 0.310195 49.4H0.200195H0.0901953C0.0901953 52.4983 2.60188 55.01 5.7002 55.01V54.9ZM57.4002 49.4H57.2902C57.2902 52.3768 54.877 54.79 51.9002 54.79V54.9V55.01C54.9985 55.01 57.5102 52.4983 57.5102 49.4H57.4002ZM51.9002 1V1.11C54.877 1.11 57.2902 3.52319 57.2902 6.5H57.4002H57.5102C57.5102 3.40168 54.9985 0.89 51.9002 0.89V1ZM5.7002 1V0.89C2.60188 0.89 0.0901953 3.40168 0.0901953 6.5H0.200195H0.310195C0.310195 3.52318 2.72338 1.11 5.7002 1.11V1Z" fill="#6C71FF" mask="url(#path-1-outside-1_167_232)"/>
<path d="M23.2993 20.3998H40.8993V24.7998H39.7993V25.8998H33.1993C32.9076 25.8998 32.6278 26.0157 32.4215 26.222C32.2152 26.4283 32.0993 26.7081 32.0993 26.9998V28.0998C32.0993 28.6833 31.8675 29.2429 31.455 29.6554C31.0424 30.068 30.4828 30.2998 29.8993 30.2998H26.1813C25.7633 30.2998 25.3783 30.5418 25.1913 30.9158L22.4963 36.2948C22.3093 36.6688 21.9353 36.8998 21.5173 36.8998H17.7993C17.7993 36.8998 14.4993 36.8998 18.8993 30.2998C18.8993 30.2998 22.1993 25.8998 17.7993 25.8998V20.3998H18.8993L19.4493 19.2998H22.7493L23.2993 20.3998ZM30.9993 28.0998V26.9998C30.9993 26.7081 30.8834 26.4283 30.6771 26.222C30.4709 26.0157 30.1911 25.8998 29.8993 25.8998H28.7993C28.7993 25.8998 27.6993 26.9998 28.7993 28.0998C28.2159 28.0998 27.6563 27.868 27.2437 27.4554C26.8311 27.0429 26.5993 26.4833 26.5993 25.8998C26.3076 25.8998 26.0278 26.0157 25.8215 26.222C25.6152 26.4283 25.4993 26.7081 25.4993 26.9998V28.0998C25.4993 28.3915 25.6152 28.6713 25.8215 28.8776C26.0278 29.0839 26.3076 29.1998 26.5993 29.1998H29.8993C30.1911 29.1998 30.4709 29.0839 30.6771 28.8776C30.8834 28.6713 30.9993 28.3915 30.9993 28.0998Z" fill="#E6E6E6"/>
<defs>
<linearGradient id="paint0_linear_167_232" x1="57.4002" y1="1" x2="0.200194" y2="54.9" gradientUnits="userSpaceOnUse">
<stop stop-color="#333AFF"/>
<stop offset="0.25" stop-color="#5258FF"/>
<stop offset="0.75" stop-color="#5258FF"/>
<stop offset="1" stop-color="#333AFF"/>
</linearGradient>
</defs>
</svg>
