<svg width="58" height="55" viewBox="0 0 58 55" fill="none" xmlns="http://www.w3.org/2000/svg">
<mask id="path-1-outside-1_262_181" maskUnits="userSpaceOnUse" x="-0.798828" y="-0.100098" width="59" height="56" fill="black">
<rect fill="white" x="-0.798828" y="-0.100098" width="59" height="56"/>
<path d="M0.201172 6.3999C0.201172 3.36233 2.66361 0.899902 5.70117 0.899902H51.9012C54.9387 0.899902 57.4012 3.36234 57.4012 6.3999V49.2999C57.4012 52.3375 54.9387 54.7999 51.9012 54.7999H5.70118C2.66361 54.7999 0.201172 52.3375 0.201172 49.2999V6.3999Z"/>
</mask>
<path d="M0.201172 6.3999C0.201172 3.36233 2.66361 0.899902 5.70117 0.899902H51.9012C54.9387 0.899902 57.4012 3.36234 57.4012 6.3999V49.2999C57.4012 52.3375 54.9387 54.7999 51.9012 54.7999H5.70118C2.66361 54.7999 0.201172 52.3375 0.201172 49.2999V6.3999Z" fill="url(#paint0_linear_262_181)" fill-opacity="0.74"/>
<path d="M5.70117 0.899902V1.0099H51.9012V0.899902V0.789902H5.70117V0.899902ZM57.4012 6.3999H57.2912V49.2999H57.4012H57.5112V6.3999H57.4012ZM51.9012 54.7999V54.6899H5.70118V54.7999V54.9099H51.9012V54.7999ZM0.201172 49.2999H0.311172V6.3999H0.201172H0.0911719V49.2999H0.201172ZM5.70118 54.7999V54.6899C2.72436 54.6899 0.311172 52.2767 0.311172 49.2999H0.201172H0.0911719C0.0911719 52.3982 2.60286 54.9099 5.70118 54.9099V54.7999ZM57.4012 49.2999H57.2912C57.2912 52.2767 54.878 54.6899 51.9012 54.6899V54.7999V54.9099C54.9995 54.9099 57.5112 52.3982 57.5112 49.2999H57.4012ZM51.9012 0.899902V1.0099C54.878 1.0099 57.2912 3.42309 57.2912 6.3999H57.4012H57.5112C57.5112 3.30158 54.9995 0.789902 51.9012 0.789902V0.899902ZM5.70117 0.899902V0.789902C2.60285 0.789902 0.0911719 3.30158 0.0911719 6.3999H0.201172H0.311172C0.311172 3.42309 2.72436 1.0099 5.70117 1.0099V0.899902Z" fill="#6C71FF" mask="url(#path-1-outside-1_262_181)"/>
<path d="M17 42C17 39.0998 18.1493 36.3184 20.1952 34.2677C22.241 32.2169 25.0158 31.0649 27.9091 31.0649C30.8024 31.0649 33.5771 32.2169 35.623 34.2677C37.6688 36.3184 38.8182 39.0998 38.8182 42H17ZM27.9091 29.698C23.3886 29.698 19.7273 26.0279 19.7273 21.4966C19.7273 16.9654 23.3886 13.2952 27.9091 13.2952C32.4295 13.2952 36.0909 16.9654 36.0909 21.4966C36.0909 26.0279 32.4295 29.698 27.9091 29.698ZM40.5173 16.2819C41.1971 17.936 41.5464 19.7077 41.5454 21.4966C41.5466 23.286 41.1973 25.0582 40.5173 26.7127L38.2304 25.0451C38.6204 23.9029 38.819 22.7038 38.8182 21.4966C38.8194 20.2895 38.6213 19.0904 38.2318 17.9482L40.5173 16.2819ZM45.02 13C46.3267 15.6406 47.0045 18.549 47 21.4966C47 24.5489 46.2868 27.4344 45.02 29.9946L42.7768 28.3584C43.7639 26.2062 44.2742 23.8653 44.2727 21.4966C44.2742 19.1279 43.7639 16.787 42.7768 14.6348L45.02 13Z" fill="#E6E6E6"/>
<defs>
<linearGradient id="paint0_linear_262_181" x1="57.4012" y1="0.899902" x2="0.201166" y2="54.7999" gradientUnits="userSpaceOnUse">
<stop stop-color="#333AFF"/>
<stop offset="0.25" stop-color="#5258FF"/>
<stop offset="0.75" stop-color="#5258FF"/>
<stop offset="1" stop-color="#333AFF"/>
</linearGradient>
</defs>
</svg>
