<svg width="58" height="55" viewBox="0 0 58 55" fill="none" xmlns="http://www.w3.org/2000/svg">
<mask id="path-1-outside-1_262_180" maskUnits="userSpaceOnUse" x="-0.400391" y="-0.100098" width="59" height="56" fill="black">
<rect fill="white" x="-0.400391" y="-0.100098" width="59" height="56"/>
<path d="M0.599609 6.3999C0.599609 3.36233 3.06204 0.899902 6.09961 0.899902H52.2996C55.3372 0.899902 57.7996 3.36234 57.7996 6.3999V49.2999C57.7996 52.3375 55.3372 54.7999 52.2996 54.7999H6.09961C3.06205 54.7999 0.599609 52.3375 0.599609 49.2999V6.3999Z"/>
</mask>
<path d="M0.599609 6.3999C0.599609 3.36233 3.06204 0.899902 6.09961 0.899902H52.2996C55.3372 0.899902 57.7996 3.36234 57.7996 6.3999V49.2999C57.7996 52.3375 55.3372 54.7999 52.2996 54.7999H6.09961C3.06205 54.7999 0.599609 52.3375 0.599609 49.2999V6.3999Z" fill="url(#paint0_linear_262_180)" fill-opacity="0.74"/>
<path d="M6.09961 0.899902V1.0099H52.2996V0.899902V0.789902H6.09961V0.899902ZM57.7996 6.3999H57.6896V49.2999H57.7996H57.9096V6.3999H57.7996ZM52.2996 54.7999V54.6899H6.09961V54.7999V54.9099H52.2996V54.7999ZM0.599609 49.2999H0.709609V6.3999H0.599609H0.489609V49.2999H0.599609ZM6.09961 54.7999V54.6899C3.1228 54.6899 0.709609 52.2767 0.709609 49.2999H0.599609H0.489609C0.489609 52.3982 3.0013 54.9099 6.09961 54.9099V54.7999ZM57.7996 49.2999H57.6896C57.6896 52.2767 55.2764 54.6899 52.2996 54.6899V54.7999V54.9099C55.3979 54.9099 57.9096 52.3982 57.9096 49.2999H57.7996ZM52.2996 0.899902V1.0099C55.2764 1.0099 57.6896 3.42309 57.6896 6.3999H57.7996H57.9096C57.9096 3.30158 55.3979 0.789902 52.2996 0.789902V0.899902ZM6.09961 0.899902V0.789902C3.00129 0.789902 0.489609 3.30158 0.489609 6.3999H0.599609H0.709609C0.709609 3.42309 3.12279 1.0099 6.09961 1.0099V0.899902Z" fill="#6C71FF" mask="url(#path-1-outside-1_262_180)"/>
<path d="M35.0862 22.6875C36.28 22.6875 37.12 22.6875 37.7713 22.7413C38.415 22.7913 38.7863 22.89 39.0638 23.0325C39.2588 23.1333 39.4392 23.2525 39.605 23.39L35.0775 27.27C34.6983 27.606 34.3072 27.9282 33.905 28.2363C33.6225 28.4413 33.4625 28.5125 33.3425 28.5425C33.0293 28.6219 32.6991 28.6023 32.3975 28.4862C32.2813 28.4412 32.1313 28.3512 31.875 28.1137C31.5124 27.7597 31.1626 27.3928 30.8263 27.0138L28.4413 24.4125C28.2722 24.2338 28.0396 24.1288 27.7938 24.12C27.5479 24.1112 27.3085 24.1994 27.1271 24.3655C26.9457 24.5317 26.8368 24.7625 26.8241 25.0081C26.8113 25.2538 26.8956 25.4947 27.0587 25.6787L29.47 28.3087C29.9075 28.7862 30.2738 29.185 30.5988 29.4875C30.9388 29.8037 31.2925 30.07 31.7237 30.2362C32.3862 30.4912 33.1112 30.535 33.8012 30.3612C34.2487 30.2487 34.6313 30.0262 35.0063 29.7537C35.3663 29.4912 35.7775 29.14 36.2688 28.7187L40.5363 25.06C40.5529 25.21 40.5613 25.3863 40.5613 25.5888C40.5663 26.2075 40.5013 27.0013 40.4088 28.1425L40.1625 31.1425C40.0813 32.1325 40.0237 32.82 39.935 33.3525C39.9183 33.4525 39.9008 33.5454 39.8825 33.6312L37.2125 30.515C37.0507 30.326 36.8205 30.2091 36.5725 30.1899C36.3245 30.1706 36.079 30.2507 35.89 30.4125C35.701 30.5743 35.5841 30.8045 35.5649 31.0525C35.5456 31.3005 35.6257 31.546 35.7875 31.735L38.8025 35.2525C38.6525 35.3583 38.4925 35.45 38.3225 35.5275C38.0625 35.6475 37.73 35.7275 37.1725 35.7688C36.6025 35.8125 35.8763 35.8125 34.84 35.8125H29.7175C28.5 35.8125 27.6475 35.8125 26.9887 35.755C26.4862 35.7113 26.1563 35.6387 25.9113 35.54L29.6625 31.7875C29.7546 31.7017 29.8285 31.5982 29.8797 31.4832C29.931 31.3682 29.9585 31.244 29.9607 31.1182C29.963 30.9923 29.9398 30.8672 29.8927 30.7505C29.8455 30.6338 29.7753 30.5277 29.6863 30.4387C29.5973 30.3497 29.4912 30.2795 29.3745 30.2323C29.2578 30.1852 29.1327 30.162 29.0068 30.1643C28.881 30.1665 28.7568 30.194 28.6418 30.2453C28.5268 30.2965 28.4233 30.3704 28.3375 30.4625L24.5737 34.225C24.5391 34.1544 24.5078 34.0823 24.48 34.0087C24.3725 33.7287 24.3225 33.3563 24.3638 32.7063C24.405 32.0463 24.5313 31.2025 24.7113 29.9987L25.2725 26.2638C25.2907 26.1419 25.2848 26.0178 25.255 25.8982C25.2252 25.7787 25.1722 25.6663 25.099 25.5673C25.0257 25.4683 24.9337 25.3846 24.8281 25.3212C24.7226 25.2578 24.6056 25.2157 24.4838 25.1975C24.3619 25.1793 24.2378 25.1852 24.1182 25.215C23.9987 25.2448 23.8863 25.2978 23.7873 25.371C23.6883 25.4443 23.6046 25.5363 23.5412 25.6419C23.4778 25.7474 23.4357 25.8644 23.4175 25.9862L22.8512 29.7625C22.7293 30.5268 22.6243 31.2936 22.5362 32.0625H19C18.7514 32.0625 18.5129 32.1613 18.3371 32.3371C18.1613 32.5129 18.0625 32.7514 18.0625 33C18.0625 33.2486 18.1613 33.4871 18.3371 33.6629C18.5129 33.8387 18.7514 33.9375 19 33.9375H22.5325C22.5725 34.1925 22.6383 34.4404 22.73 34.6812C23.1193 35.6947 23.8482 36.5417 24.7925 37.0775C25.3925 37.4175 26.0613 37.5575 26.8275 37.6225C27.5775 37.6875 28.51 37.6875 29.675 37.6875H34.875C35.8675 37.6875 36.6637 37.6875 37.3125 37.6375C37.9775 37.5875 38.5588 37.4825 39.1038 37.2325C39.9751 36.8354 40.7077 36.1868 41.2075 35.37C41.52 34.8575 41.6787 34.2975 41.7837 33.6575C41.8862 33.04 41.9487 32.2775 42.0262 31.335L42.2787 28.2525C42.3687 27.165 42.4413 26.29 42.4363 25.5775C42.4313 24.845 42.3488 24.1963 42.0675 23.59C41.6203 22.6304 40.8653 21.8478 39.9225 21.3662C39.3275 21.06 38.6737 20.9325 37.92 20.8712C37.185 20.8125 36.27 20.8125 35.125 20.8125H16.5C16.2514 20.8125 16.0129 20.9113 15.8371 21.0871C15.6613 21.2629 15.5625 21.5014 15.5625 21.75C15.5625 21.9986 15.6613 22.2371 15.8371 22.4129C16.0129 22.5887 16.2514 22.6875 16.5 22.6875H35.0862Z" fill="#E6E6E6"/>
<path d="M17.75 24.5625C17.5014 24.5625 17.2629 24.6613 17.0871 24.8371C16.9113 25.0129 16.8125 25.2514 16.8125 25.5C16.8125 25.7486 16.9113 25.9871 17.0871 26.1629C17.2629 26.3387 17.5014 26.4375 17.75 26.4375H21.5C21.7486 26.4375 21.9871 26.3387 22.1629 26.1629C22.3387 25.9871 22.4375 25.7486 22.4375 25.5C22.4375 25.2514 22.3387 25.0129 22.1629 24.8371C21.9871 24.6613 21.7486 24.5625 21.5 24.5625H17.75ZM19 28.3125C18.7514 28.3125 18.5129 28.4113 18.3371 28.5871C18.1613 28.7629 18.0625 29.0014 18.0625 29.25C18.0625 29.4986 18.1613 29.7371 18.3371 29.9129C18.5129 30.0887 18.7514 30.1875 19 30.1875H20.25C20.4986 30.1875 20.7371 30.0887 20.9129 29.9129C21.0887 29.7371 21.1875 29.4986 21.1875 29.25C21.1875 29.0014 21.0887 28.7629 20.9129 28.5871C20.7371 28.4113 20.4986 28.3125 20.25 28.3125H19Z" fill="#E6E6E6"/>
<defs>
<linearGradient id="paint0_linear_262_180" x1="57.7996" y1="0.899902" x2="0.599604" y2="54.7999" gradientUnits="userSpaceOnUse">
<stop stop-color="#333AFF"/>
<stop offset="0.25" stop-color="#5258FF"/>
<stop offset="0.75" stop-color="#5258FF"/>
<stop offset="1" stop-color="#333AFF"/>
</linearGradient>
</defs>
</svg>
