<svg width="58" height="55" viewBox="0 0 58 55" fill="none" xmlns="http://www.w3.org/2000/svg">
<mask id="path-1-outside-1_262_176" maskUnits="userSpaceOnUse" x="-0.798828" y="-0.00012207" width="59" height="56" fill="black">
<rect fill="white" x="-0.798828" y="-0.00012207" width="59" height="56"/>
<path d="M0.201172 6.49988C0.201172 3.46231 2.66361 0.999878 5.70117 0.999878H51.9012C54.9387 0.999878 57.4012 3.46231 57.4012 6.49988V49.3999C57.4012 52.4375 54.9387 54.8999 51.9012 54.8999H5.70118C2.66361 54.8999 0.201172 52.4375 0.201172 49.3999V6.49988Z"/>
</mask>
<path d="M0.201172 6.49988C0.201172 3.46231 2.66361 0.999878 5.70117 0.999878H51.9012C54.9387 0.999878 57.4012 3.46231 57.4012 6.49988V49.3999C57.4012 52.4375 54.9387 54.8999 51.9012 54.8999H5.70118C2.66361 54.8999 0.201172 52.4375 0.201172 49.3999V6.49988Z" fill="url(#paint0_linear_262_176)" fill-opacity="0.74"/>
<path d="M5.70117 0.999878V1.10988H51.9012V0.999878V0.889878H5.70117V0.999878ZM57.4012 6.49988H57.2912V49.3999H57.4012H57.5112V6.49988H57.4012ZM51.9012 54.8999V54.7899H5.70118V54.8999V55.0099H51.9012V54.8999ZM0.201172 49.3999H0.311172V6.49988H0.201172H0.0911719V49.3999H0.201172ZM5.70118 54.8999V54.7899C2.72436 54.7899 0.311172 52.3767 0.311172 49.3999H0.201172H0.0911719C0.0911719 52.4982 2.60286 55.0099 5.70118 55.0099V54.8999ZM57.4012 49.3999H57.2912C57.2912 52.3767 54.878 54.7899 51.9012 54.7899V54.8999V55.0099C54.9995 55.0099 57.5112 52.4982 57.5112 49.3999H57.4012ZM51.9012 0.999878V1.10988C54.878 1.10988 57.2912 3.52306 57.2912 6.49988H57.4012H57.5112C57.5112 3.40156 54.9995 0.889878 51.9012 0.889878V0.999878ZM5.70117 0.999878V0.889878C2.60285 0.889878 0.0911719 3.40156 0.0911719 6.49988H0.201172H0.311172C0.311172 3.52306 2.72436 1.10988 5.70117 1.10988V0.999878Z" fill="#6C71FF" mask="url(#path-1-outside-1_262_176)"/>
<path d="M25.25 25.125H32.75C33.1644 25.125 33.5 24.7894 33.5 24.375V23.625C33.5 23.2106 33.1644 22.875 32.75 22.875H25.25C24.8356 22.875 24.5 23.2106 24.5 23.625V24.375C24.5 24.7894 24.8356 25.125 25.25 25.125ZM24.5 28.875C24.5 29.2894 24.8356 29.625 25.25 29.625H32.75C33.1644 29.625 33.5 29.2894 33.5 28.875V28.125C33.5 27.7106 33.1644 27.375 32.75 27.375H25.25C24.8356 27.375 24.5 27.7106 24.5 28.125V28.875ZM29 34.553C28.2303 34.553 27.4606 34.3158 26.8034 33.841L17 26.7591V36.75C17 37.9927 18.0073 39 19.25 39H38.75C39.9927 39 41 37.9927 41 36.75V26.7591L31.1966 33.841C30.5394 34.3153 29.7697 34.553 29 34.553ZM40.138 22.6383C39.7231 22.313 39.3298 22.0069 38.75 21.5691V19.5C38.75 18.2574 37.7427 17.25 36.5 17.25H32.8648C32.7223 17.1469 32.5897 17.0503 32.4411 16.9425C31.6531 16.3674 30.0875 14.9836 29 15C27.9125 14.9836 26.3473 16.3674 25.5589 16.9425C25.4103 17.0503 25.2777 17.1469 25.1352 17.25H21.5C20.2573 17.25 19.25 18.2574 19.25 19.5V21.5691C18.6702 22.0064 18.2769 22.313 17.862 22.6383C17.5935 22.8488 17.3764 23.1175 17.227 23.4242C17.0777 23.731 17.0001 24.0676 17 24.4088V24.908L21.5 28.1588V19.5H36.5V28.1588L41 24.908V24.4088C41 23.7178 40.6822 23.0649 40.138 22.6383Z" fill="#E6E6E6"/>
<defs>
<linearGradient id="paint0_linear_262_176" x1="57.4012" y1="0.999878" x2="0.201166" y2="54.8999" gradientUnits="userSpaceOnUse">
<stop stop-color="#333AFF"/>
<stop offset="0.25" stop-color="#5258FF"/>
<stop offset="0.75" stop-color="#5258FF"/>
<stop offset="1" stop-color="#333AFF"/>
</linearGradient>
</defs>
</svg>
